<svg version="1.1" xmlns="http://www.w3.org/2000/svg" width="24" height="20" viewBox="0 0 24 24" color="currentColor" fill="currentColor" aria-label="Repost">
	<title>Repost</title>
	<path d="M19.998 9.497a1 1 0 0 0-1 1v4.228a3.274 3.274 0 0 1-3.27 3.27h-5.313l1.791-1.787a1 1 0 0 0-1.412-1.416L7.29 18.287a1.004 1.004 0 0 0-.294.707v.001c0 .023.012.042.013.065a.923.923 0 0 0 .281.643l3.502 3.504a1 1 0 0 0 1.414-1.414l-1.797-1.798h5.318a5.276 5.276 0 0 0 5.27-5.27v-4.228a1 1 0 0 0-1-1Zm-6.41-3.496-1.795 1.795a1 1 0 1 0 1.414 1.414l3.5-3.5a1.003 1.003 0 0 0 0-1.417l-3.5-3.5a1 1 0 0 0-1.414 1.414l1.794 1.794H8.27A5.277 5.277 0 0 0 3 9.271V13.5a1 1 0 0 0 2 0V9.271a3.275 3.275 0 0 1 3.271-3.27Z"></path>
</svg>
